<?xml version="1.0" encoding="UTF-8"?>
<svg version="1.1" xmlns="http://www.w3.org/2000/svg" width="1024" height="1024">
<path d="M0 0 C0.66 0 1.32 0 2 0 C2 0.66 2 1.32 2 2 C6.95 2.33 11.9 2.66 17 3 C17.33 2.34 17.66 1.68 18 1 C18 1.99 18 2.98 18 4 C19.155 3.95875 20.31 3.9175 21.5 3.875 C27.60400837 3.85546717 33.58466767 4.74845312 39.62109375 5.5625 C42.76272178 6.04280262 42.76272178 6.04280262 45 6 C45 6.66 45 7.32 45 8 C46.29164063 8.11601562 47.58328125 8.23203125 48.9140625 8.3515625 C53.88395735 8.90550072 58.56416869 10.04051894 63.375 11.375 C64.19919434 11.59905518 65.02338867 11.82311035 65.87255859 12.05395508 C67.50356934 12.49765533 69.1339654 12.94362269 70.76367188 13.39208984 C72.71736815 13.92317104 74.67847885 14.42682348 76.640625 14.92578125 C77.62546875 15.17714844 78.6103125 15.42851562 79.625 15.6875 C80.46289062 15.89761719 81.30078125 16.10773438 82.1640625 16.32421875 C84 17 84 17 85 19 C86.9954429 19.35960916 88.99651539 19.68829414 91 20 C95.18023868 21.45698165 99.23406927 23.21785416 103.3125 24.9375 C104.97635742 25.62102539 104.97635742 25.62102539 106.67382812 26.31835938 C107.72634766 26.75857422 108.77886719 27.19878906 109.86328125 27.65234375 C110.82532471 28.05445068 111.78736816 28.45655762 112.77856445 28.87084961 C115 30 115 30 116 32 C117.99877226 32.67033863 119.99909544 33.33605319 122 34 C124.79441175 35.32106089 127.48921534 36.80618466 130.1875 38.3125 C130.96706055 38.74763916 131.74662109 39.18277832 132.54980469 39.63110352 C151.04763972 50.15936232 168.03084866 63.04387831 183.51025391 77.61181641 C185.04745452 79.04421934 186.60405847 80.45230299 188.16796875 81.85546875 C193.83470806 86.94757498 199.12629669 92.13273056 204 98 C204.80695313 98.91910156 205.61390625 99.83820313 206.4453125 100.78515625 C244.47044542 144.26708891 268.12743326 199.83760449 275 257 C275.09571289 257.75853271 275.19142578 258.51706543 275.29003906 259.29858398 C276.35749888 269.05589367 276.24381081 278.88414318 276.25 288.6875 C276.25101212 290.12737778 276.25101212 290.12737778 276.25204468 291.59634399 C276.23567119 306.26989945 275.67194402 320.53836596 273 335 C272.75056641 336.42771729 272.75056641 336.42771729 272.49609375 337.88427734 C266.12868728 373.75989619 253.25948996 409.55374961 233 440 C232.38970947 440.92256592 232.38970947 440.92256592 231.76708984 441.86376953 C225.29467603 451.60716238 218.41840592 460.95705057 211 470 C210.52981445 470.57459961 210.05962891 471.14919922 209.57519531 471.74121094 C199.68388412 483.74874037 188.92501746 494.99190123 177 505 C176.07316406 505.81597656 175.14632813 506.63195312 174.19140625 507.47265625 C156.04286928 523.35795722 134.82465892 536.92799683 112.96582031 547.08496094 C111.64070435 547.70176852 110.3197742 548.32763932 109.00292969 548.96191406 C39.49898224 582.43416422 -41.22391771 583.4946961 -113.42695618 558.58599854 C-147.05836692 546.699544 -179.91612897 527.36965571 -206 503 C-207.3695264 501.78546639 -208.74427708 500.57678978 -210.125 499.375 C-210.76566406 498.81425781 -211.40632813 498.25351562 -212.06640625 497.67578125 C-213.37850454 496.5386294 -214.6991668 495.41129886 -216.02734375 494.29296875 C-220.0421066 490.87926445 -223.59065828 487.33655874 -227.00390625 483.32421875 C-229.53503378 480.37701546 -232.13444821 477.4972562 -234.75 474.625 C-235.45829956 473.83863159 -235.45829956 473.83863159 -236.1809082 473.03637695 C-238.35311681 470.65529466 -240.30114548 468.79923634 -243 467 C-243.70783769 465.68805944 -244.37189511 464.35192695 -245 463 C-245.86807401 461.72543622 -246.76598219 460.47084993 -247.6875 459.234375 C-248.21682129 458.51660889 -248.74614258 457.79884277 -249.29150391 457.05932617 C-249.85530762 456.29724854 -250.41911133 455.5351709 -251 454.75 C-257.10141135 446.41265187 -262.66687794 437.84392249 -268 429 C-268.58523438 428.06800781 -269.17046875 427.13601563 -269.7734375 426.17578125 C-271 424 -271 424 -271 422 C-271.66 421.67 -272.32 421.34 -273 421 C-275 418 -275 418 -275.87890625 415.3359375 C-277.24958425 411.25733468 -279.06263454 407.49169501 -280.9375 403.625 C-288 389.05449907 -288 389.05449907 -288 384 C-288.66 383.67 -289.32 383.34 -290 383 C-290.74829102 380.87182617 -290.74829102 380.87182617 -291.44140625 378.10546875 C-291.69809082 377.10563965 -291.95477539 376.10581055 -292.21923828 375.07568359 C-292.47688965 374.06070801 -292.73454102 373.04573242 -293 372 C-293.48434705 370.24500323 -293.97250689 368.49105338 -294.46484375 366.73828125 C-305.38728065 326.89770568 -306.85688624 287.022345 -302.27539062 246.16186523 C-302.00776878 243.08919638 -301.95118763 240.0824429 -302 237 C-301.34 237 -300.68 237 -300 237 C-299.9175 235.865625 -299.835 234.73125 -299.75 233.5625 C-296.90097143 208.31694124 -286.86118446 182.26477757 -275.04736328 159.984375 C-273.93884801 157.88413907 -272.85698311 155.77146181 -271.77734375 153.65625 C-267.35465367 145.0562578 -262.61049017 136.89707166 -257 129 C-256.34128906 128.06671875 -255.68257813 127.1334375 -255.00390625 126.171875 C-245.82266642 113.35751298 -235.86015155 100.09573804 -224.2421875 89.3671875 C-222.74293845 87.90198804 -222.74293845 87.90198804 -222 85 C-220.34833689 83.97540899 -218.67941382 82.9784411 -217 82 C-215.58288485 80.66844652 -214.20882854 79.289974 -212.875 77.875 C-208.57726593 73.44681195 -203.95692567 69.63316441 -199.08984375 65.84765625 C-198.40019531 65.23792969 -197.71054687 64.62820313 -197 64 C-197 63.34 -197 62.68 -197 62 C-196.46890625 61.92652344 -195.9378125 61.85304688 -195.390625 61.77734375 C-192.048163 60.69049745 -189.52760168 58.64902937 -186.75 56.5625 C-180.78193755 52.17882936 -174.64757966 48.17493852 -168.33105469 44.31274414 C-167.37440918 43.72674438 -167.37440918 43.72674438 -166.3984375 43.12890625 C-165.83817871 42.78931885 -165.27791992 42.44973145 -164.70068359 42.09985352 C-162.92270126 40.98289928 -162.92270126 40.98289928 -161.04760742 39.49731445 C-159.03182253 38.02327025 -157.09845618 36.96968184 -154.83984375 35.9140625 C-154.05246826 35.54337646 -153.26509277 35.17269043 -152.45385742 34.79077148 C-151.62345947 34.40606689 -150.79306152 34.0213623 -149.9375 33.625 C-149.07552002 33.22289307 -148.21354004 32.82078613 -147.32543945 32.40649414 C-145.62602917 31.61467431 -143.92577932 30.82465332 -142.22460938 30.03662109 C-140.50184303 29.23384828 -138.78803321 28.41183965 -137.078125 27.58203125 C-99.1823917 9.43913933 -56.82386929 2.59053611 -15.1875 1.4375 C-13.70506987 1.39416168 -12.2226479 1.35054344 -10.74023438 1.30664062 C-7.16024412 1.2012123 -3.58015971 1.09952889 0 1 C0 0.67 0 0.34 0 0 Z " fill="#0066FE" transform="translate(526,218)"/>
<path d="M0 0 C1.67603302 -0.01496269 1.67603302 -0.01496269 3.38592529 -0.03022766 C5.21804314 -0.03122467 5.21804314 -0.03122467 7.08717346 -0.03224182 C8.37695099 -0.04056534 9.66672852 -0.04888885 10.99559021 -0.0574646 C14.53070901 -0.07939269 18.06574132 -0.08820592 21.60092044 -0.09329104 C23.81010954 -0.09693592 26.01927602 -0.10317659 28.2284565 -0.11029243 C35.93706888 -0.13477884 43.64561402 -0.14783755 51.35426331 -0.15138245 C58.53783187 -0.15501949 65.72097365 -0.18492858 72.90441173 -0.22678703 C79.07438574 -0.26147861 85.24421817 -0.27693067 91.41428906 -0.27762848 C95.09836676 -0.27842155 98.7820094 -0.28717328 102.46598625 -0.31562614 C106.57439705 -0.34664872 110.68178975 -0.33775282 114.79029846 -0.32521057 C116.00968613 -0.34004486 117.22907379 -0.35487915 118.4854126 -0.37016296 C127.66025219 -0.29019347 127.66025219 -0.29019347 130.78823853 2.57821655 C132.7415524 5.6484297 132.95690563 7.53480192 132.23780823 11.10032654 C130.81746223 15.30470179 128.43695642 18.84100384 126.00343323 22.52415466 C124.8154584 24.37978912 123.62935976 26.23662564 122.44483948 28.09446716 C121.80820374 29.08607849 121.17156799 30.07768982 120.51564026 31.09934998 C117.27410019 36.21376239 114.15725628 41.40290559 111.03233337 46.588974 C105.37214787 55.97687667 99.62912414 65.30497725 93.74049377 74.55174255 C89.81996648 80.72635527 86.04994667 86.98357672 82.30543518 93.26609802 C77.89085195 100.66068689 73.39387719 108.00343464 68.87843323 115.33665466 C68.34748047 116.19965683 68.34748047 116.19965683 67.80580139 117.08009338 C61.87965729 126.70981857 61.87965729 126.70981857 59.50343323 130.27415466 C59.27758635 133.81242236 59.46007039 136.88322544 60.50343323 140.27415466 C63.34498689 141.08123393 65.87272204 141.40202195 68.82312012 141.41218567 C69.67963669 141.41763901 70.53615326 141.42309235 71.41862488 141.42871094 C72.81593338 141.43027443 72.81593338 141.43027443 74.24147034 141.43186951 C75.22888718 141.43695023 76.21630402 141.44203094 77.23364258 141.44726562 C79.37692314 141.45796165 81.52021481 141.46658484 83.66351128 141.47338486 C87.05516265 141.48517695 90.44668688 141.50462971 93.83828735 141.52650452 C103.48110231 141.58811772 113.1239034 141.64220645 122.76686096 141.67552185 C128.66544157 141.6964498 134.56378894 141.73173543 140.4622364 141.77627945 C142.710483 141.79045149 144.95877083 141.79916459 147.20705986 141.80233383 C150.35028939 141.80723457 153.49289794 141.83037062 156.63600159 141.85765076 C158.03027374 141.85314156 158.03027374 141.85314156 159.45271301 141.84854126 C165.44309595 141.92586981 168.89575057 142.84031752 173.37843323 147.02415466 C175.07653444 150.4203571 174.34376311 152.6162481 173.50343323 156.27415466 C172.00997734 158.61148563 170.59336522 160.55937061 168.81593323 162.64915466 C168.33189026 163.24147888 167.84784729 163.8338031 167.34913635 164.44407654 C165.74699715 166.39864586 164.12562489 168.33620909 162.50343323 170.27415466 C161.34973788 171.67147732 160.19741964 173.06993799 159.04640198 174.46946716 C157.26979067 176.62913416 155.49211851 178.78782469 153.70899963 180.94212341 C149.50141991 186.03046674 145.39278214 191.18671345 141.33106995 196.39183044 C137.93114539 200.74488767 134.45884123 205.03263741 130.94874573 209.29759216 C127.95250797 212.94476975 124.97772794 216.60907807 122.00343323 220.27415466 C118.34469077 224.7806929 114.68218261 229.28391645 111.00343323 233.77415466 C99.32495655 248.02491151 99.32495655 248.02491151 87.87843323 262.46165466 C83.91473189 267.54771234 79.8135343 272.49049124 75.62135315 277.3891449 C72.37945011 281.19440819 69.25996209 285.07850017 66.19093323 289.02415466 C60.298149 296.59891336 54.18869518 303.98850228 48.0693512 311.38059998 C40.72552024 320.26097928 33.47825635 329.22107057 26.21485901 338.16722107 C24.49826495 340.28051733 22.78034944 342.39273236 21.06202698 344.50462341 C15.80749822 350.96394487 10.56696001 357.43269074 5.37452698 363.94212341 C2.62379814 367.37048483 -0.16527881 370.76696554 -2.95359802 374.16477966 C-4.83448731 376.46005119 -6.70462081 378.76377147 -8.57078552 381.07102966 C-14.21863329 388.05086126 -19.89999946 394.99057357 -25.7407074 401.81028748 C-28.40017947 404.92876473 -30.91881509 408.11648485 -33.37156677 411.39915466 C-35.76923603 414.49733062 -37.70317508 416.91242431 -41.49656677 418.27415466 C-45.35455926 418.27415466 -47.16964789 417.49446956 -50.37156677 415.33665466 C-53.39574756 410.97827647 -53.01422841 407.45121767 -52.49656677 402.27415466 C-51.62336518 398.33321098 -50.3815885 394.55556101 -49.08641052 390.73509216 C-48.7275325 389.63632751 -48.36865448 388.53756287 -47.99890137 387.40550232 C-46.82367305 383.81561572 -45.62873168 380.23261445 -44.43406677 376.64915466 C-43.40134246 373.50628371 -42.3720569 370.36231248 -41.34398842 367.21791649 C-41.13754393 366.58651567 -40.93109943 365.95511486 -40.71839905 365.30458069 C-40.51144032 364.67147602 -40.30448158 364.03837135 -40.09125137 363.3860817 C-39.45926549 361.4551007 -38.82535479 359.52476077 -38.19099426 357.59455872 C-34.48847163 346.3185091 -30.93761612 334.99808952 -27.42869568 323.66053772 C-23.06083603 309.54950818 -18.63753893 295.46472299 -13.93406677 281.46165466 C-13.53719666 280.27998718 -13.14032654 279.0983197 -12.73143005 277.88084412 C-11.99494771 275.69179344 -11.2579986 273.50289972 -10.52049255 271.31419373 C-8.9531021 266.66060624 -7.39430326 262.00506229 -5.87156677 257.33665466 C-5.62334167 256.60277527 -5.37511658 255.86889587 -5.11936951 255.11277771 C-3.70173014 250.7144875 -3.10678734 246.88845529 -3.49656677 242.27415466 C-5.36365182 239.90918027 -6.81718108 238.61384751 -9.49656677 237.27415466 C-10.95282517 237.17880915 -12.4133519 237.14514192 -13.87272644 237.14285278 C-14.79236176 237.1388446 -15.71199707 237.13483643 -16.65950012 237.13070679 C-17.67146454 237.1312355 -18.68342896 237.13176422 -19.72605896 237.13230896 C-21.32137955 237.12709732 -21.32137955 237.12709732 -22.94892883 237.1217804 C-25.26467615 237.11441443 -27.58043057 237.10907354 -29.89618683 237.10548973 C-33.56099208 237.09833917 -37.22566227 237.08268285 -40.89042664 237.06414795 C-51.31250652 237.01161382 -61.7345136 236.96369732 -72.15672302 236.94822693 C-78.52635888 236.93815071 -84.89565708 236.90883288 -91.26515961 236.86690712 C-93.69400225 236.8545852 -96.12289257 236.84947802 -98.55176544 236.85170555 C-101.95137603 236.85405592 -105.35001682 236.83190988 -108.74949646 236.80418396 C-109.75336395 236.81078537 -110.75723145 236.81738678 -111.79151917 236.82418823 C-117.65091922 236.74571384 -121.03198138 236.18051016 -125.49656677 232.27415466 C-126.89538862 229.47651097 -126.69082188 227.38199942 -126.49656677 224.27415466 C-125.58543396 221.66307068 -125.58543396 221.66307068 -124.29344177 219.02806091 C-123.80617615 218.02323669 -123.31891052 217.01841248 -122.81687927 215.98313904 C-122.29867615 214.94479919 -121.78047302 213.90645935 -121.24656677 212.83665466 C-120.7747699 211.86405701 -120.30297302 210.89145935 -119.81687927 209.88938904 C-116.35607565 202.82136318 -112.71219638 195.8551759 -109.05516052 188.88743591 C-104.21909741 179.66357743 -99.508479 170.38242039 -94.85984802 161.06321716 C-94.53218571 160.40644674 -94.20452339 159.74967632 -93.86693192 159.07300377 C-91.51142883 154.34982063 -89.15984989 149.62468833 -86.80906677 144.89915466 C-84.12023087 139.49422573 -81.42980941 134.09009492 -78.73484802 128.68821716 C-78.41225132 128.04150307 -78.08965462 127.39478897 -77.75728226 126.72847748 C-73.76248326 118.72661935 -69.70563007 110.76508338 -65.4793396 102.88275146 C-62.72338487 97.73808563 -60.09837427 92.53562539 -57.50305176 87.30838013 C-53.61803182 79.48739605 -49.62034172 71.72493117 -45.62156677 63.96165466 C-45.03145813 62.81503357 -45.03145813 62.81503357 -44.4294281 61.64524841 C-39.24579521 51.57431033 -34.05173172 41.50972997 -28.72703552 31.51243591 C-27.07793118 28.40741851 -25.49066771 25.27619255 -23.92234802 22.12962341 C-23.48535583 21.26595154 -23.04836365 20.40227966 -22.59812927 19.51243591 C-21.77158744 17.87688494 -20.95667684 16.23537304 -20.15672302 14.58665466 C-15.92927658 6.2910149 -9.69777496 0.04646535 0 0 Z " fill="#FDFDFE" transform="translate(491.49656677246094,312.72584533691406)"/>
<path d="M0 0 C0.99 0.33 1.98 0.66 3 1 C0.03 4.96 0.03 4.96 -3 9 C-3.99 8.67 -4.98 8.34 -6 8 C-5.195625 7.236875 -4.39125 6.47375 -3.5625 5.6875 C-0.83200976 3.20569102 -0.83200976 3.20569102 0 0 Z " fill="#015FEA" transform="translate(304,303)"/>
<path d="M0 0 C0.33 0.66 0.66 1.32 1 2 C-0.73397418 5.65047197 -2.19333016 7.55609075 -6 9 C-4.47291037 5.56404834 -2.40072955 2.88087546 0 0 Z " fill="#084DFC" transform="translate(655,481)"/>
<path d="M0 0 C0.66 0.99 1.32 1.98 2 3 C1.16130925 6.91389016 0.22640104 9.66039844 -2 13 C-1.85769192 11.58297487 -1.71099254 10.1663904 -1.5625 8.75 C-1.48128906 7.96109375 -1.40007812 7.1721875 -1.31640625 6.359375 C-1.02365007 4.17635361 -0.57935581 2.1226818 0 0 Z " fill="#005EEB" transform="translate(229,437)"/>
<path d="M0 0 C0.33 0.66 0.66 1.32 1 2 C-0.25 5.5625 -0.25 5.5625 -2 9 C-2.99 9.33 -3.98 9.66 -5 10 C-3.84414715 6.08788267 -2.64465038 3.1254959 0 0 Z " fill="#084AFD" transform="translate(567,416)"/>
<path d="M0 0 C0.33 0.99 0.66 1.98 1 3 C-0.98 4.98 -2.96 6.96 -5 9 C-5.66 8.67 -6.32 8.34 -7 8 C-4.69 5.36 -2.38 2.72 0 0 Z " fill="#0747FB" transform="translate(578,576)"/>
<path d="M0 0 C0.99 0.33 1.98 0.66 3 1 C1.625 3 1.625 3 0 5 C-0.66 5 -1.32 5 -2 5 C-2.66 6.32 -3.32 7.64 -4 9 C-4 5.00095031 -2.27413033 3.19799578 0 0 Z " fill="#005BE8" transform="translate(276,337)"/>
<path d="M0 0 C0.33 1.32 0.66 2.64 1 4 C-0.65 5.32 -2.3 6.64 -4 8 C-4.66 7.67 -5.32 7.34 -6 7 C-4.02 4.69 -2.04 2.38 0 0 Z " fill="#044AFC" transform="translate(591,560)"/>
<path d="M0 0 C0.99 0.495 0.99 0.495 2 1 C1.67 1.66 1.34 2.32 1 3 C0.67 2.01 0.34 1.02 0 0 Z " fill="#0153DB" transform="translate(764,362)"/>
<path d="M0 0 C4 1 4 1 4 1 Z " fill="#0156E2" transform="translate(500,218)"/>
<path d="" fill="#0156DE" transform="translate(0,0)"/>
<path d="M0 0 C0.99 0.495 0.99 0.495 2 1 C1.01 1.495 1.01 1.495 0 2 C0 1.34 0 0.68 0 0 Z " fill="#0050D6" transform="translate(264,348)"/>
<path d="" fill="#0151D6" transform="translate(0,0)"/>
<path d="M0 0 C3 1 3 1 3 1 Z " fill="#0154DC" transform="translate(721,305)"/>
<path d="M0 0 C3 1 3 1 3 1 Z " fill="#0156E2" transform="translate(536,219)"/>
<path d="M0 0 C3 1 3 1 3 1 Z " fill="#0157E2" transform="translate(516,218)"/>
<path d="M0 0 C2 1 2 1 2 1 Z " fill="#0253DA" transform="translate(560,791)"/>
<path d="M0 0 C2 1 2 1 2 1 Z " fill="#0150D8" transform="translate(464,791)"/>
<path d="M0 0 C2 1 2 1 2 1 Z " fill="#0152D7" transform="translate(568,789)"/>
<path d="" fill="#0451D5" transform="translate(0,0)"/>
<path d="M0 0 C2 1 2 1 2 1 Z " fill="#0253D9" transform="translate(429,783)"/>
<path d="M0 0 C2 1 2 1 2 1 Z " fill="#0050D5" transform="translate(402,774)"/>
<path d="M0 0 C2 1 2 1 2 1 Z " fill="#0352DB" transform="translate(636,767)"/>
<path d="" fill="#0254E0" transform="translate(0,0)"/>
<path d="" fill="#0355DB" transform="translate(0,0)"/>
<path d="M0 0 C2 1 2 1 2 1 Z " fill="#034FD7" transform="translate(806,489)"/>
<path d="" fill="#0153D8" transform="translate(0,0)"/>
<path d="" fill="#0052D8" transform="translate(0,0)"/>
<path d="" fill="#0055E1" transform="translate(0,0)"/>
<path d="M0 0 C2 1 2 1 2 1 Z " fill="#0051DA" transform="translate(320,287)"/>
<path d="M0 0 C2 1 2 1 2 1 Z " fill="#0155DF" transform="translate(657,256)"/>
<path d="" fill="#0252DB" transform="translate(0,0)"/>
<path d="" fill="#0151DA" transform="translate(0,0)"/>
<path d="M0 0 C2 1 2 1 2 1 Z " fill="#0255E0" transform="translate(624,240)"/>
<path d="M0 0 C2 1 2 1 2 1 Z " fill="#0256E1" transform="translate(540,219)"/>
<path d="M0 0 C2 1 2 1 2 1 Z " fill="#0058E1" transform="translate(487,219)"/>
<path d="M0 0 C2 1 2 1 2 1 Z " fill="#0157E3" transform="translate(513,218)"/>
<path d="" fill="#000000" transform="translate(0,0)"/>
<path d="" fill="#000000" transform="translate(0,0)"/>
<path d="" fill="#000000" transform="translate(0,0)"/>
<path d="" fill="#000000" transform="translate(0,0)"/>
<path d="" fill="#000000" transform="translate(0,0)"/>
<path d="" fill="#000000" transform="translate(0,0)"/>
<path d="" fill="#000000" transform="translate(0,0)"/>
<path d="" fill="#000000" transform="translate(0,0)"/>
<path d="" fill="#000000" transform="translate(0,0)"/>
<path d="" fill="#000000" transform="translate(0,0)"/>
<path d="" fill="#000000" transform="translate(0,0)"/>
<path d="" fill="#000000" transform="translate(0,0)"/>
<path d="" fill="#000000" transform="translate(0,0)"/>
<path d="" fill="#000000" transform="translate(0,0)"/>
<path d="" fill="#000000" transform="translate(0,0)"/>
<path d="" fill="#000000" transform="translate(0,0)"/>
<path d="" fill="#000000" transform="translate(0,0)"/>
<path d="" fill="#000000" transform="translate(0,0)"/>
<path d="" fill="#000000" transform="translate(0,0)"/>
<path d="" fill="#000000" transform="translate(0,0)"/>
<path d="" fill="#010000" transform="translate(0,0)"/>
<path d="" fill="#000000" transform="translate(0,0)"/>
<path d="" fill="#000000" transform="translate(0,0)"/>
<path d="" fill="#000000" transform="translate(0,0)"/>
<path d="" fill="#000000" transform="translate(0,0)"/>
<path d="" fill="#000000" transform="translate(0,0)"/>
<path d="" fill="#000000" transform="translate(0,0)"/>
<path d="" fill="#000000" transform="translate(0,0)"/>
<path d="" fill="#000005" transform="translate(0,0)"/>
<path d="" fill="#000000" transform="translate(0,0)"/>
<path d="" fill="#000000" transform="translate(0,0)"/>
<path d="" fill="#000000" transform="translate(0,0)"/>
<path d="" fill="#000000" transform="translate(0,0)"/>
<path d="" fill="#000000" transform="translate(0,0)"/>
<path d="" fill="#000000" transform="translate(0,0)"/>
<path d="" fill="#010000" transform="translate(0,0)"/>
<path d="" fill="#000000" transform="translate(0,0)"/>
<path d="" fill="#000000" transform="translate(0,0)"/>
<path d="" fill="#000000" transform="translate(0,0)"/>
<path d="" fill="#000000" transform="translate(0,0)"/>
<path d="" fill="#000000" transform="translate(0,0)"/>
<path d="" fill="#000000" transform="translate(0,0)"/>
<path d="" fill="#010009" transform="translate(0,0)"/>
<path d="" fill="#000000" transform="translate(0,0)"/>
<path d="" fill="#000000" transform="translate(0,0)"/>
<path d="" fill="#000000" transform="translate(0,0)"/>
<path d="" fill="#000000" transform="translate(0,0)"/>
<path d="" fill="#000000" transform="translate(0,0)"/>
<path d="" fill="#000000" transform="translate(0,0)"/>
<path d="" fill="#000000" transform="translate(0,0)"/>
<path d="" fill="#000000" transform="translate(0,0)"/>
<path d="" fill="#000000" transform="translate(0,0)"/>
<path d="" fill="#000000" transform="translate(0,0)"/>
<path d="" fill="#000000" transform="translate(0,0)"/>
<path d="" fill="#000000" transform="translate(0,0)"/>
<path d="" fill="#000000" transform="translate(0,0)"/>
<path d="" fill="#000C2C" transform="translate(0,0)"/>
<path d="" fill="#000003" transform="translate(0,0)"/>
<path d="" fill="#000000" transform="translate(0,0)"/>
<path d="" fill="#000000" transform="translate(0,0)"/>
<path d="" fill="#000000" transform="translate(0,0)"/>
<path d="" fill="#000000" transform="translate(0,0)"/>
<path d="" fill="#000000" transform="translate(0,0)"/>
<path d="" fill="#000006" transform="translate(0,0)"/>
<path d="" fill="#000000" transform="translate(0,0)"/>
<path d="" fill="#0353D7" transform="translate(0,0)"/>
<path d="" fill="#0455DB" transform="translate(0,0)"/>
<path d="" fill="#0251D7" transform="translate(0,0)"/>
<path d="" fill="#0152DA" transform="translate(0,0)"/>
<path d="" fill="#0253DB" transform="translate(0,0)"/>
<path d="" fill="#000000" transform="translate(0,0)"/>
<path d="" fill="#0155DE" transform="translate(0,0)"/>
<path d="" fill="#0054DC" transform="translate(0,0)"/>
<path d="" fill="#0050D8" transform="translate(0,0)"/>
<path d="" fill="#0352DA" transform="translate(0,0)"/>
<path d="" fill="#0151D7" transform="translate(0,0)"/>
<path d="" fill="#000000" transform="translate(0,0)"/>
<path d="" fill="#024FD3" transform="translate(0,0)"/>
<path d="" fill="#0053DF" transform="translate(0,0)"/>
<path d="" fill="#004FD9" transform="translate(0,0)"/>
<path d="" fill="#0051DC" transform="translate(0,0)"/>
<path d="" fill="#0257DC" transform="translate(0,0)"/>
<path d="" fill="#0054DD" transform="translate(0,0)"/>
<path d="" fill="#024FD5" transform="translate(0,0)"/>
<path d="" fill="#0151DA" transform="translate(0,0)"/>
<path d="" fill="#0253DD" transform="translate(0,0)"/>
<path d="" fill="#0050DE" transform="translate(0,0)"/>
<path d="" fill="#0252DA" transform="translate(0,0)"/>
<path d="" fill="#0153D9" transform="translate(0,0)"/>
<path d="" fill="#000000" transform="translate(0,0)"/>
<path d="" fill="#0054DB" transform="translate(0,0)"/>
<path d="" fill="#0252D8" transform="translate(0,0)"/>
<path d="" fill="#0354D9" transform="translate(0,0)"/>
<path d="" fill="#0453D6" transform="translate(0,0)"/>
<path d="" fill="#0054DA" transform="translate(0,0)"/>
<path d="" fill="#000000" transform="translate(0,0)"/>
<path d="" fill="#0151DB" transform="translate(0,0)"/>
<path d="" fill="#0152D5" transform="translate(0,0)"/>
<path d="" fill="#0351D9" transform="translate(0,0)"/>
<path d="" fill="#014FD9" transform="translate(0,0)"/>
<path d="" fill="#0151DB" transform="translate(0,0)"/>
<path d="" fill="#001442" transform="translate(0,0)"/>
<path d="" fill="#000000" transform="translate(0,0)"/>
<path d="" fill="#000414" transform="translate(0,0)"/>
<path d="" fill="#0050D6" transform="translate(0,0)"/>
<path d="" fill="#064ED8" transform="translate(0,0)"/>
<path d="" fill="#0357DA" transform="translate(0,0)"/>
<path d="" fill="#0052D7" transform="translate(0,0)"/>
<path d="" fill="#0153D7" transform="translate(0,0)"/>
<path d="" fill="#034ED5" transform="translate(0,0)"/>
<path d="" fill="#0351D8" transform="translate(0,0)"/>
<path d="" fill="#0258D5" transform="translate(0,0)"/>
<path d="" fill="#054CD0" transform="translate(0,0)"/>
<path d="" fill="#0351D5" transform="translate(0,0)"/>
<path d="" fill="#0252D5" transform="translate(0,0)"/>
<path d="" fill="#0052D5" transform="translate(0,0)"/>
<path d="" fill="#0253DA" transform="translate(0,0)"/>
<path d="" fill="#0250D5" transform="translate(0,0)"/>
<path d="" fill="#0153E0" transform="translate(0,0)"/>
<path d="" fill="#0254D7" transform="translate(0,0)"/>
<path d="" fill="#0353D8" transform="translate(0,0)"/>
<path d="" fill="#0155DC" transform="translate(0,0)"/>
<path d="" fill="#0152D8" transform="translate(0,0)"/>
<path d="" fill="#004ED8" transform="translate(0,0)"/>
<path d="" fill="#0253D7" transform="translate(0,0)"/>
<path d="" fill="#000000" transform="translate(0,0)"/>
<path d="" fill="#0256DB" transform="translate(0,0)"/>
<path d="" fill="#0153DD" transform="translate(0,0)"/>
<path d="" fill="#0252D8" transform="translate(0,0)"/>
<path d="" fill="#001947" transform="translate(0,0)"/>
<path d="" fill="#0356DF" transform="translate(0,0)"/>
<path d="" fill="#0051D8" transform="translate(0,0)"/>
<path d="" fill="#064DD4" transform="translate(0,0)"/>
<path d="" fill="#024FD4" transform="translate(0,0)"/>
<path d="" fill="#074FD1" transform="translate(0,0)"/>
<path d="" fill="#0053D8" transform="translate(0,0)"/>
<path d="" fill="#024FD9" transform="translate(0,0)"/>
<path d="" fill="#024DD1" transform="translate(0,0)"/>
<path d="" fill="#0351DB" transform="translate(0,0)"/>
<path d="" fill="#024DD0" transform="translate(0,0)"/>
<path d="" fill="#014BC9" transform="translate(0,0)"/>
<path d="" fill="#000001" transform="translate(0,0)"/>
<path d="" fill="#010C29" transform="translate(0,0)"/>
<path d="" fill="#000418" transform="translate(0,0)"/>
<path d="" fill="#0250D3" transform="translate(0,0)"/>
<path d="" fill="#0455D7" transform="translate(0,0)"/>
<path d="" fill="#024FD2" transform="translate(0,0)"/>
<path d="" fill="#044FD3" transform="translate(0,0)"/>
<path d="" fill="#0454D8" transform="translate(0,0)"/>
<path d="" fill="#0455DB" transform="translate(0,0)"/>
<path d="" fill="#0053DF" transform="translate(0,0)"/>
<path d="" fill="#0055DB" transform="translate(0,0)"/>
<path d="" fill="#000000" transform="translate(0,0)"/>
<path d="" fill="#0354DB" transform="translate(0,0)"/>
<path d="" fill="#000000" transform="translate(0,0)"/>
<path d="" fill="#0455DE" transform="translate(0,0)"/>
<path d="" fill="#001A4D" transform="translate(0,0)"/>
<path d="" fill="#0153D8" transform="translate(0,0)"/>
<path d="" fill="#0854D8" transform="translate(0,0)"/>
<path d="" fill="#000208" transform="translate(0,0)"/>
<path d="" fill="#0456DC" transform="translate(0,0)"/>
<path d="" fill="#0457DD" transform="translate(0,0)"/>
<path d="" fill="#0555DF" transform="translate(0,0)"/>
<path d="" fill="#0357DE" transform="translate(0,0)"/>
<path d="" fill="#0556DC" transform="translate(0,0)"/>
<path d="" fill="#0555DC" transform="translate(0,0)"/>
<path d="" fill="#0453DD" transform="translate(0,0)"/>
<path d="" fill="#000001" transform="translate(0,0)"/>
<path d="" fill="#0254DF" transform="translate(0,0)"/>
<path d="" fill="#0355DC" transform="translate(0,0)"/>
<path d="" fill="#00020F" transform="translate(0,0)"/>
<path d="" fill="#0558DB" transform="translate(0,0)"/>
<path d="" fill="#0257DB" transform="translate(0,0)"/>
<path d="" fill="#0357DC" transform="translate(0,0)"/>
<path d="" fill="#0356DC" transform="translate(0,0)"/>
<path d="" fill="#000000" transform="translate(0,0)"/>
<path d="" fill="#0457DE" transform="translate(0,0)"/>
<path d="" fill="#0555DE" transform="translate(0,0)"/>
<path d="" fill="#0153DD" transform="translate(0,0)"/>
<path d="" fill="#0254DC" transform="translate(0,0)"/>
<path d="" fill="#000000" transform="translate(0,0)"/>
<path d="" fill="#0155D9" transform="translate(0,0)"/>
<path d="" fill="#0250D5" transform="translate(0,0)"/>
<path d="" fill="#00030F" transform="translate(0,0)"/>
<path d="" fill="#0054DC" transform="translate(0,0)"/>
<path d="" fill="#0255D8" transform="translate(0,0)"/>
<path d="" fill="#0052D8" transform="translate(0,0)"/>
<path d="" fill="#014ED4" transform="translate(0,0)"/>
<path d="" fill="#0150D6" transform="translate(0,0)"/>
<path d="" fill="#0255DC" transform="translate(0,0)"/>
<path d="" fill="#0252DC" transform="translate(0,0)"/>
<path d="" fill="#0054DA" transform="translate(0,0)"/>
<path d="" fill="#0251D8" transform="translate(0,0)"/>
<path d="" fill="#0255DC" transform="translate(0,0)"/>
<path d="" fill="#0153DB" transform="translate(0,0)"/>
<path d="" fill="#0150D6" transform="translate(0,0)"/>
<path d="" fill="#014FD3" transform="translate(0,0)"/>
<path d="" fill="#0254DA" transform="translate(0,0)"/>
<path d="" fill="#0053D8" transform="translate(0,0)"/>
<path d="" fill="#020000" transform="translate(0,0)"/>
<path d="" fill="#0054D9" transform="translate(0,0)"/>
<path d="" fill="#000108" transform="translate(0,0)"/>
<path d="" fill="#0053D9" transform="translate(0,0)"/>
<path d="" fill="#0151D6" transform="translate(0,0)"/>
<path d="" fill="#000000" transform="translate(0,0)"/>
<path d="" fill="#004CD6" transform="translate(0,0)"/>
<path d="" fill="#0150D4" transform="translate(0,0)"/>
<path d="" fill="#0051D6" transform="translate(0,0)"/>
<path d="" fill="#0053DD" transform="translate(0,0)"/>
<path d="" fill="#0050DA" transform="translate(0,0)"/>
<path d="" fill="#0053D7" transform="translate(0,0)"/>
<path d="" fill="#0053D7" transform="translate(0,0)"/>
<path d="" fill="#0153D8" transform="translate(0,0)"/>
<path d="" fill="#004ED7" transform="translate(0,0)"/>
<path d="" fill="#000000" transform="translate(0,0)"/>
<path d="" fill="#000106" transform="translate(0,0)"/>
<path d="" fill="#0050D4" transform="translate(0,0)"/>
<path d="" fill="#014ED6" transform="translate(0,0)"/>
<path d="" fill="#0052D4" transform="translate(0,0)"/>
<path d="" fill="#0050D8" transform="translate(0,0)"/>
<path d="" fill="#0152DA" transform="translate(0,0)"/>
<path d="" fill="#0051D3" transform="translate(0,0)"/>
<path d="" fill="#0252D8" transform="translate(0,0)"/>
<path d="" fill="#0052D6" transform="translate(0,0)"/>
<path d="" fill="#004FD1" transform="translate(0,0)"/>
<path d="" fill="#001B51" transform="translate(0,0)"/>
<path d="" fill="#0350D4" transform="translate(0,0)"/>
<path d="" fill="#0051D6" transform="translate(0,0)"/>
<path d="" fill="#000000" transform="translate(0,0)"/>
<path d="" fill="#004FD2" transform="translate(0,0)"/>
<path d="" fill="#000000" transform="translate(0,0)"/>
<path d="" fill="#0152DB" transform="translate(0,0)"/>
<path d="" fill="#0154DB" transform="translate(0,0)"/>
<path d="" fill="#000000" transform="translate(0,0)"/>
<path d="" fill="#004DD5" transform="translate(0,0)"/>
<path d="" fill="#0051D3" transform="translate(0,0)"/>
<path d="" fill="#0053DC" transform="translate(0,0)"/>
<path d="" fill="#0352D4" transform="translate(0,0)"/>
<path d="" fill="#0051D9" transform="translate(0,0)"/>
<path d="" fill="#0254DB" transform="translate(0,0)"/>
<path d="" fill="#024DD8" transform="translate(0,0)"/>
<path d="" fill="#0052D6" transform="translate(0,0)"/>
<path d="" fill="#0050D7" transform="translate(0,0)"/>
<path d="" fill="#0054DE" transform="translate(0,0)"/>
<path d="" fill="#0151D8" transform="translate(0,0)"/>
<path d="" fill="#0153DD" transform="translate(0,0)"/>
<path d="" fill="#0050D6" transform="translate(0,0)"/>
<path d="" fill="#0450DB" transform="translate(0,0)"/>
<path d="" fill="#0150D8" transform="translate(0,0)"/>
<path d="" fill="#0454DB" transform="translate(0,0)"/>
<path d="" fill="#004ED4" transform="translate(0,0)"/>
<path d="" fill="#0455D8" transform="translate(0,0)"/>
<path d="" fill="#000000" transform="translate(0,0)"/>
<path d="" fill="#000000" transform="translate(0,0)"/>
<path d="" fill="#000003" transform="translate(0,0)"/>
<path d="" fill="#0054DB" transform="translate(0,0)"/>
<path d="" fill="#0053E0" transform="translate(0,0)"/>
<path d="" fill="#0053DF" transform="translate(0,0)"/>
<path d="" fill="#0350DD" transform="translate(0,0)"/>
<path d="" fill="#0254DF" transform="translate(0,0)"/>
<path d="" fill="#0355E3" transform="translate(0,0)"/>
<path d="" fill="#0051DA" transform="translate(0,0)"/>
<path d="" fill="#024BD8" transform="translate(0,0)"/>
<path d="" fill="#0050DB" transform="translate(0,0)"/>
<path d="" fill="#0252D7" transform="translate(0,0)"/>
<path d="" fill="#000000" transform="translate(0,0)"/>
<path d="" fill="#0054DF" transform="translate(0,0)"/>
<path d="" fill="#024DD4" transform="translate(0,0)"/>
<path d="" fill="#0058E3" transform="translate(0,0)"/>
<path d="" fill="#000008" transform="translate(0,0)"/>
<path d="" fill="#004ED8" transform="translate(0,0)"/>
<path d="" fill="#0256E0" transform="translate(0,0)"/>
<path d="" fill="#0154DB" transform="translate(0,0)"/>
<path d="" fill="#001039" transform="translate(0,0)"/>
<path d="" fill="#000007" transform="translate(0,0)"/>
<path d="" fill="#0155DF" transform="translate(0,0)"/>
<path d="" fill="#0055DB" transform="translate(0,0)"/>
<path d="" fill="#0050D5" transform="translate(0,0)"/>
<path d="" fill="#0055DE" transform="translate(0,0)"/>
<path d="" fill="#000000" transform="translate(0,0)"/>
<path d="" fill="#0257E2" transform="translate(0,0)"/>
<path d="" fill="#0156E5" transform="translate(0,0)"/>
<path d="" fill="#014FD6" transform="translate(0,0)"/>
<path d="" fill="#014FD3" transform="translate(0,0)"/>
<path d="" fill="#0051DA" transform="translate(0,0)"/>
<path d="" fill="#0055DB" transform="translate(0,0)"/>
<path d="" fill="#0353E1" transform="translate(0,0)"/>
<path d="" fill="#0359E0" transform="translate(0,0)"/>
<path d="" fill="#0057DF" transform="translate(0,0)"/>
<path d="" fill="#0156E1" transform="translate(0,0)"/>
<path d="" fill="#0056E3" transform="translate(0,0)"/>
<path d="" fill="#000F34" transform="translate(0,0)"/>
<path d="" fill="#0255DF" transform="translate(0,0)"/>
<path d="" fill="#0055E0" transform="translate(0,0)"/>
<path d="" fill="#0153DF" transform="translate(0,0)"/>
<path d="" fill="#0056E0" transform="translate(0,0)"/>
<path d="" fill="#000000" transform="translate(0,0)"/>
<path d="" fill="#0159E5" transform="translate(0,0)"/>
<path d="" fill="#035AE4" transform="translate(0,0)"/>
<path d="" fill="#000000" transform="translate(0,0)"/>
<path d="" fill="#0155E1" transform="translate(0,0)"/>
<path d="" fill="#0357E1" transform="translate(0,0)"/>
<path d="" fill="#0252E4" transform="translate(0,0)"/>
<path d="" fill="#004FD4" transform="translate(0,0)"/>
<path d="" fill="#0051DB" transform="translate(0,0)"/>
<path d="" fill="#0052DA" transform="translate(0,0)"/>
<path d="" fill="#000000" transform="translate(0,0)"/>
<path d="" fill="#001A54" transform="translate(0,0)"/>
<path d="" fill="#000000" transform="translate(0,0)"/>
<path d="" fill="#000E32" transform="translate(0,0)"/>
<path d="" fill="#000005" transform="translate(0,0)"/>
<path d="" fill="#002975" transform="translate(0,0)"/>
<path d="" fill="#000002" transform="translate(0,0)"/>
<path d="" fill="#000001" transform="translate(0,0)"/>
<path d="" fill="#000000" transform="translate(0,0)"/>
<path d="" fill="#000000" transform="translate(0,0)"/>
<path d="" fill="#00123A" transform="translate(0,0)"/>
<path d="" fill="#000100" transform="translate(0,0)"/>
<path d="" fill="#000000" transform="translate(0,0)"/>
<path d="" fill="#000000" transform="translate(0,0)"/>
<path d="" fill="#00051A" transform="translate(0,0)"/>
<path d="" fill="#000000" transform="translate(0,0)"/>
<path d="" fill="#000000" transform="translate(0,0)"/>
<path d="" fill="#000000" transform="translate(0,0)"/>
<path d="" fill="#000B24" transform="translate(0,0)"/>
<path d="" fill="#000000" transform="translate(0,0)"/>
<path d="" fill="#000000" transform="translate(0,0)"/>
<path d="" fill="#010000" transform="translate(0,0)"/>
<path d="" fill="#000000" transform="translate(0,0)"/>
<path d="" fill="#000000" transform="translate(0,0)"/>
<path d="" fill="#000000" transform="translate(0,0)"/>
<path d="" fill="#000004" transform="translate(0,0)"/>
<path d="" fill="#000000" transform="translate(0,0)"/>
<path d="" fill="#000000" transform="translate(0,0)"/>
<path d="" fill="#000000" transform="translate(0,0)"/>
<path d="" fill="#000000" transform="translate(0,0)"/>
<path d="" fill="#000000" transform="translate(0,0)"/>
<path d="" fill="#000001" transform="translate(0,0)"/>
<path d="" fill="#000000" transform="translate(0,0)"/>
<path d="" fill="#000000" transform="translate(0,0)"/>
<path d="" fill="#000000" transform="translate(0,0)"/>
<path d="" fill="#000000" transform="translate(0,0)"/>
<path d="" fill="#000000" transform="translate(0,0)"/>
<path d="" fill="#000000" transform="translate(0,0)"/>
<path d="" fill="#000000" transform="translate(0,0)"/>
<path d="" fill="#000000" transform="translate(0,0)"/>
<path d="" fill="#000000" transform="translate(0,0)"/>
<path d="" fill="#000000" transform="translate(0,0)"/>
<path d="" fill="#000000" transform="translate(0,0)"/>
<path d="" fill="#000000" transform="translate(0,0)"/>
<path d="" fill="#000000" transform="translate(0,0)"/>
<path d="" fill="#000000" transform="translate(0,0)"/>
<path d="" fill="#000000" transform="translate(0,0)"/>
<path d="" fill="#000000" transform="translate(0,0)"/>
<path d="" fill="#000000" transform="translate(0,0)"/>
<path d="" fill="#000000" transform="translate(0,0)"/>
<path d="" fill="#000000" transform="translate(0,0)"/>
<path d="" fill="#000000" transform="translate(0,0)"/>
</svg>
